<mxfile host="app.diagrams.net" modified="2021-04-14T13:24:33.213Z" agent="5.0 (Windows NT 10.0; Win64; x64) AppleWebKit/537.36 (KHTML, like Gecko) Chrome/88.0.4324.104 Safari/537.36" etag="OW3QDC-oHXIvRzwlp0vJ" version="14.5.8" type="github">
  <diagram id="72TtBlfxzLhCpoLpWuUk" name="第 1 页">
    <mxGraphModel dx="870" dy="539" grid="1" gridSize="10" guides="1" tooltips="1" connect="1" arrows="1" fold="1" page="1" pageScale="1" pageWidth="827" pageHeight="1169" math="0" shadow="0">
      <root>
        <mxCell id="0" />
        <mxCell id="1" parent="0" />
        <mxCell id="dkoipIHHwC6IMYt9yq8K-6" style="edgeStyle=orthogonalEdgeStyle;rounded=0;orthogonalLoop=1;jettySize=auto;html=1;exitX=0.5;exitY=1;exitDx=0;exitDy=0;entryX=0;entryY=0;entryDx=0;entryDy=0;" parent="1" source="dkoipIHHwC6IMYt9yq8K-2" target="dkoipIHHwC6IMYt9yq8K-3" edge="1">
          <mxGeometry relative="1" as="geometry" />
        </mxCell>
        <mxCell id="dkoipIHHwC6IMYt9yq8K-2" value="&lt;font style=&quot;font-size: 16px&quot;&gt;fun1&lt;/font&gt;" style="rounded=1;whiteSpace=wrap;html=1;strokeWidth=2;fillWeight=4;hachureGap=8;hachureAngle=45;fillColor=#fff2cc;sketch=1;strokeColor=#d6b656;" parent="1" vertex="1">
          <mxGeometry x="90" y="195" width="120" height="60" as="geometry" />
        </mxCell>
        <mxCell id="dkoipIHHwC6IMYt9yq8K-7" style="edgeStyle=orthogonalEdgeStyle;rounded=0;orthogonalLoop=1;jettySize=auto;html=1;exitX=0.5;exitY=1;exitDx=0;exitDy=0;entryX=0;entryY=0;entryDx=0;entryDy=0;" parent="1" source="dkoipIHHwC6IMYt9yq8K-3" target="dkoipIHHwC6IMYt9yq8K-4" edge="1">
          <mxGeometry relative="1" as="geometry" />
        </mxCell>
        <mxCell id="dkoipIHHwC6IMYt9yq8K-3" value="&lt;font style=&quot;font-size: 16px&quot;&gt;fun2&lt;/font&gt;" style="rounded=1;whiteSpace=wrap;html=1;strokeWidth=2;fillWeight=4;hachureGap=8;hachureAngle=45;fillColor=#fff2cc;sketch=1;strokeColor=#d6b656;" parent="1" vertex="1">
          <mxGeometry x="150" y="285" width="120" height="60" as="geometry" />
        </mxCell>
        <mxCell id="dkoipIHHwC6IMYt9yq8K-8" style="edgeStyle=orthogonalEdgeStyle;rounded=0;orthogonalLoop=1;jettySize=auto;html=1;exitX=0.5;exitY=1;exitDx=0;exitDy=0;entryX=0;entryY=0;entryDx=0;entryDy=0;" parent="1" source="dkoipIHHwC6IMYt9yq8K-4" target="dkoipIHHwC6IMYt9yq8K-5" edge="1">
          <mxGeometry relative="1" as="geometry" />
        </mxCell>
        <mxCell id="dkoipIHHwC6IMYt9yq8K-4" value="&lt;font style=&quot;font-size: 16px&quot;&gt;fun3&lt;/font&gt;" style="rounded=1;whiteSpace=wrap;html=1;strokeWidth=2;fillWeight=4;hachureGap=8;hachureAngle=45;fillColor=#fff2cc;sketch=1;strokeColor=#d6b656;" parent="1" vertex="1">
          <mxGeometry x="210" y="375" width="120" height="60" as="geometry" />
        </mxCell>
        <mxCell id="dkoipIHHwC6IMYt9yq8K-5" value="&lt;font style=&quot;font-size: 16px&quot;&gt;fun4&lt;/font&gt;" style="rounded=1;whiteSpace=wrap;html=1;strokeWidth=2;fillWeight=4;hachureGap=8;hachureAngle=45;fillColor=#fff2cc;sketch=1;strokeColor=#d6b656;" parent="1" vertex="1">
          <mxGeometry x="270" y="465" width="120" height="60" as="geometry" />
        </mxCell>
        <mxCell id="dkoipIHHwC6IMYt9yq8K-13" value="" style="curved=1;endArrow=classic;html=1;shadow=0;strokeWidth=5;fillColor=#ffe6cc;strokeColor=#d79b00;dashed=1;" parent="1" edge="1">
          <mxGeometry width="50" height="50" relative="1" as="geometry">
            <mxPoint x="595" y="455" as="sourcePoint" />
            <mxPoint x="525" y="220" as="targetPoint" />
            <Array as="points">
              <mxPoint x="615" y="430" />
              <mxPoint x="605" y="280" />
            </Array>
          </mxGeometry>
        </mxCell>
        <mxCell id="dkoipIHHwC6IMYt9yq8K-14" value="&lt;span style=&quot;font-size: 16px&quot;&gt;边界值&lt;/span&gt;" style="ellipse;whiteSpace=wrap;html=1;strokeWidth=2;fillWeight=2;hachureGap=8;fillColor=#ffe6cc;fillStyle=dots;sketch=1;strokeColor=#d79b00;" parent="1" vertex="1">
          <mxGeometry x="440" y="150" width="120" height="60" as="geometry" />
        </mxCell>
        <mxCell id="dkoipIHHwC6IMYt9yq8K-15" value="" style="endArrow=none;dashed=1;html=1;shadow=0;strokeWidth=5;" parent="1" edge="1">
          <mxGeometry width="50" height="50" relative="1" as="geometry">
            <mxPoint x="65" y="570" as="sourcePoint" />
            <mxPoint x="495" y="569.5" as="targetPoint" />
          </mxGeometry>
        </mxCell>
        <mxCell id="V2HfzAz6D24cPClr76hl-4" style="edgeStyle=orthogonalEdgeStyle;rounded=0;orthogonalLoop=1;jettySize=auto;html=1;exitX=0.5;exitY=0;exitDx=0;exitDy=0;entryX=0.5;entryY=1;entryDx=0;entryDy=0;fontSize=16;" parent="1" source="dkoipIHHwC6IMYt9yq8K-16" edge="1">
          <mxGeometry relative="1" as="geometry">
            <mxPoint x="555" y="525" as="targetPoint" />
          </mxGeometry>
        </mxCell>
        <mxCell id="dkoipIHHwC6IMYt9yq8K-16" value="&lt;font style=&quot;font-size: 16px&quot;&gt;边界条件&lt;/font&gt;" style="rounded=1;whiteSpace=wrap;html=1;strokeWidth=2;fillWeight=4;hachureGap=8;hachureAngle=45;fillColor=#f8cecc;sketch=1;strokeColor=#b85450;" parent="1" vertex="1">
          <mxGeometry x="495" y="540" width="120" height="60" as="geometry" />
        </mxCell>
        <mxCell id="V2HfzAz6D24cPClr76hl-1" value="&lt;font color=&quot;#ff0000&quot;&gt;向上依次return&lt;/font&gt;" style="text;html=1;strokeColor=none;fillColor=none;align=center;verticalAlign=middle;whiteSpace=wrap;rounded=0;fontSize=16;" parent="1" vertex="1">
          <mxGeometry x="495" y="355" width="90" height="20" as="geometry" />
        </mxCell>
        <mxCell id="V2HfzAz6D24cPClr76hl-5" value="&lt;span style=&quot;font-size: 16px&quot;&gt;边界值&lt;/span&gt;" style="ellipse;whiteSpace=wrap;html=1;strokeWidth=2;fillWeight=2;hachureGap=8;fillColor=#ffe6cc;fillStyle=dots;sketch=1;strokeColor=#d79b00;" parent="1" vertex="1">
          <mxGeometry x="495" y="465" width="120" height="60" as="geometry" />
        </mxCell>
      </root>
    </mxGraphModel>
  </diagram>
</mxfile>
